<svg width="190" height="34" viewBox="0 0 190 34" fill="none" xmlns="http://www.w3.org/2000/svg">
<g clip-path="url(#clip0)">
<path d="M0 28.9638H4.00271V12.6164L11.8133 28.9638H13.5136L21.3419 12.6164V28.9638H25.3269V3.45975H21.4836L12.6635 21.5251L3.84331 3.45975H0V28.9638Z" fill="#353535"/>
<path d="M35.6514 29.4951C37.1745 29.4951 38.4674 29.2471 39.5301 28.7512C40.6046 28.2435 41.5492 27.4583 42.3639 26.3956V28.9638H46.1009V17.2213C46.1009 16.3948 46.0655 15.6332 45.9947 14.9366C45.9238 14.2281 45.7172 13.5374 45.3748 12.8644C44.749 11.601 43.7867 10.6918 42.4879 10.1368C41.2009 9.58189 39.7072 9.30442 38.007 9.30442C35.7635 9.30442 33.9747 9.79442 32.6405 10.7744C31.3062 11.7545 30.403 13.0533 29.9307 14.6709L33.8271 15.893C34.1459 14.9129 34.7068 14.2222 35.5097 13.8208C36.3126 13.4193 37.145 13.2186 38.007 13.2186C39.3058 13.2186 40.2622 13.4842 40.8762 14.0156C41.4901 14.5351 41.8385 15.3439 41.9211 16.442C40.2445 16.69 38.6859 16.932 37.2454 17.1682C35.8167 17.3925 34.6005 17.67 33.5969 18.0006C32.0855 18.5201 30.9815 19.2581 30.2849 20.2145C29.5883 21.1591 29.24 22.328 29.24 23.7213C29.24 24.7721 29.482 25.7344 29.9661 26.6082C30.462 27.4819 31.1882 28.1845 32.1446 28.7158C33.101 29.2353 34.2699 29.4951 35.6514 29.4951ZM36.5015 26.0946C35.4979 26.0946 34.7304 25.8643 34.1991 25.4038C33.6795 24.9433 33.4198 24.3648 33.4198 23.6681C33.4198 23.0423 33.6205 22.5346 34.022 22.145C34.4352 21.7553 35.0079 21.4247 35.7399 21.1532C36.413 20.9288 37.2218 20.734 38.1664 20.5687C39.111 20.3916 40.3448 20.1849 41.868 19.9488C41.8562 20.3975 41.8267 20.8993 41.7794 21.4542C41.7322 21.9974 41.62 22.4874 41.4429 22.9243C41.3012 23.3611 41.0238 23.8275 40.6105 24.3234C40.209 24.8194 39.6659 25.2385 38.9811 25.5809C38.2962 25.9234 37.4697 26.0946 36.5015 26.0946Z" fill="#353535"/>
<path d="M50.7119 28.9638H54.998V19.2404C54.998 18.1305 55.1987 17.1445 55.6002 16.2826C56.0134 15.4207 56.6569 14.7535 57.5307 14.2812C58.1211 13.9388 58.7823 13.7381 59.5143 13.6791C60.2464 13.6082 60.9017 13.6554 61.4803 13.8208V9.83575C60.6183 9.70587 59.7328 9.72358 58.8236 9.88888C57.9144 10.0424 57.1056 10.3612 56.3972 10.8453C55.9957 11.0932 55.6356 11.3943 55.3168 11.7486C54.998 12.091 54.7205 12.4747 54.4844 12.8998V9.83575H50.7119V28.9638Z" fill="#353535"/>
<path d="M64.8246 28.9638H69.1816V19.754L76.4963 28.9638H82.1461L74.0876 19.3998L81.5085 9.83575H76.1775L69.1816 19.0455V3.45975H64.8601L64.8246 28.9638Z" fill="#353535"/>
<path d="M92.2705 29.4951C94.1125 29.4951 95.795 29.0228 97.3182 28.0782C98.8531 27.1218 99.9867 25.7758 100.719 24.0401L96.5035 22.7649C95.6533 24.5832 94.1597 25.4924 92.0226 25.4924C90.5702 25.4924 89.4249 25.0732 88.5866 24.2349C87.7483 23.3848 87.2465 22.1686 87.0812 20.5864H100.931C101.097 18.284 100.843 16.2885 100.17 14.6C99.4967 12.9116 98.4635 11.6069 97.0702 10.6859C95.6888 9.76491 94.0062 9.30442 92.0226 9.30442C90.1452 9.30442 88.4921 9.72948 87.0634 10.5796C85.6347 11.4179 84.5189 12.6105 83.716 14.1573C82.9131 15.704 82.5117 17.5224 82.5117 19.6123C82.5117 21.5487 82.919 23.2608 83.7337 24.7485C84.5603 26.2362 85.7056 27.3993 87.1697 28.2376C88.6338 29.0759 90.3341 29.4951 92.2705 29.4951ZM92.1997 13.0415C93.5221 13.0415 94.5375 13.3898 95.246 14.0864C95.9662 14.7712 96.4208 15.8634 96.6097 17.363H87.1874C87.6951 14.482 89.3659 13.0415 92.1997 13.0415Z" fill="#353535"/>
<path d="M116.094 28.9638V25.3861C114.902 25.5632 113.839 25.6105 112.906 25.5278C111.973 25.4451 111.294 25.0496 110.869 24.3412C110.645 23.9751 110.521 23.5028 110.497 22.9243C110.486 22.3339 110.48 21.6609 110.48 20.9052V13.1832H116.094V9.83575H110.48V4.52241H106.229V9.83575H102.758V13.1832H106.229V21.1532C106.229 22.2512 106.241 23.2313 106.265 24.0932C106.288 24.9433 106.518 25.7817 106.955 26.6082C107.451 27.5173 108.177 28.1845 109.134 28.6095C110.09 29.0228 111.17 29.2412 112.375 29.2648C113.591 29.3003 114.831 29.1999 116.094 28.9638Z" fill="#353535"/>
<path d="M157.076 29.5129C158.457 29.5129 159.668 29.2768 160.707 28.8045C161.757 28.3204 162.631 27.6651 163.328 26.8385V28.9639H167.1V9.83587H162.814V19.6655C162.814 21.2123 162.59 22.4108 162.141 23.2609C161.704 24.0992 161.143 24.6837 160.459 25.0143C159.774 25.3331 159.065 25.4925 158.333 25.4925C157.318 25.4925 156.509 25.2741 155.907 24.8372C155.305 24.3885 154.856 23.8277 154.561 23.1546C154.277 22.4698 154.089 21.7614 153.994 21.0293C153.911 20.2972 153.87 19.636 153.87 19.0457V9.83587H149.549V20.5157C149.549 20.9644 149.584 21.5606 149.655 22.3045C149.738 23.0484 149.909 23.8336 150.168 24.6601C150.428 25.4866 150.83 26.2718 151.373 27.0157C151.916 27.7477 152.648 28.3499 153.569 28.8222C154.502 29.2827 155.671 29.5129 157.076 29.5129Z" fill="#353535"/>
<path d="M172.041 28.9639H175.813V27.547C176.498 28.161 177.295 28.6392 178.204 28.9816C179.114 29.324 180.135 29.4952 181.268 29.4952C183.039 29.4952 184.574 29.0524 185.873 28.1669C187.184 27.2813 188.199 26.077 188.92 24.5538C189.64 23.0307 190 21.3127 190 19.3999C190 17.4635 189.634 15.7337 188.902 14.2105C188.182 12.6874 187.154 11.4889 185.82 10.6152C184.486 9.74141 182.916 9.30454 181.109 9.30454C180.153 9.30454 179.279 9.43442 178.488 9.69418C177.697 9.94214 176.982 10.3023 176.345 10.7746V3.45987H172.041V28.9639ZM180.613 25.6696C178.901 25.6696 177.673 25.0911 176.929 23.9339C176.185 22.765 175.813 21.2536 175.813 19.3999C175.813 17.5343 176.179 16.023 176.911 14.8658C177.655 13.7087 178.842 13.1301 180.471 13.1301C181.617 13.1301 182.555 13.4135 183.287 13.9803C184.031 14.5352 184.58 15.2909 184.935 16.2473C185.301 17.1919 185.484 18.2428 185.484 19.3999C185.484 20.5688 185.307 21.6256 184.952 22.5702C184.61 23.5148 184.079 24.2704 183.358 24.8372C182.638 25.3921 181.723 25.6696 180.613 25.6696Z" fill="#353535"/>
<path fill-rule="evenodd" clip-rule="evenodd" d="M119.163 4.48802C119.481 3.74759 120.351 3.40009 121.107 3.71184L120.531 5.0525C121.107 3.71184 121.106 3.71177 121.107 3.71184L121.11 3.7132L121.115 3.71528L121.13 3.72161C121.142 3.7268 121.159 3.73391 121.18 3.74296C121.222 3.76105 121.281 3.78688 121.356 3.82045C121.506 3.88756 121.719 3.98576 121.983 4.11508C122.51 4.37346 123.245 4.75762 124.092 5.26828C124.531 5.53303 124.798 6.00201 124.798 6.50715V13.8605C125.692 13.4132 126.698 12.9908 127.75 12.6114C130.007 11.7971 132.64 11.1212 135.168 10.814C137.657 10.5116 140.226 10.5431 142.243 11.3069C143.275 11.6975 144.221 12.3023 144.907 13.2059C145.602 14.1211 145.95 15.2383 145.95 16.5079V23.963C145.95 24.7664 145.285 25.4176 144.465 25.4176C143.646 25.4176 142.981 24.7664 142.981 23.963V16.5079C142.981 15.7773 142.79 15.2903 142.526 14.9424C142.253 14.5828 141.82 14.2657 141.174 14.0208C139.834 13.5137 137.845 13.4202 135.533 13.7012C133.261 13.9773 130.85 14.5932 128.775 15.3415C127.05 15.9638 125.666 16.6392 124.798 17.223V23.963C124.798 24.7664 124.133 25.4176 123.314 25.4176C122.494 25.4176 121.829 24.7664 121.829 23.963V7.33497C121.368 7.07608 120.967 6.8701 120.655 6.71725C120.424 6.60413 120.243 6.52049 120.122 6.46639C120.062 6.43935 120.017 6.41972 119.988 6.40751C119.974 6.4014 119.964 6.39715 119.958 6.39476L119.953 6.39257L119.954 6.39294C119.199 6.08105 118.844 5.22832 119.163 4.48802Z" fill="#E60000"/>
<ellipse cx="123.314" cy="29.0543" rx="1.85532" ry="1.81821" fill="#E60000"/>
<ellipse cx="144.465" cy="29.0543" rx="1.85532" ry="1.81821" fill="#E60000"/>
<path fill-rule="evenodd" clip-rule="evenodd" d="M140.383 22.5084C140.383 23.3117 139.732 23.963 138.929 23.963H134.416C133.613 23.963 132.962 23.3117 132.962 22.5084C132.962 21.7051 133.613 21.0538 134.416 21.0538H138.929C139.732 21.0538 140.383 21.7051 140.383 22.5084Z" fill="#E60000"/>
</g>
<defs>
<clipPath id="clip0">
<rect width="190" height="34" fill="white"/>
</clipPath>
</defs>
</svg>
